<svg width="1200" height="630" viewBox="0 0 1200 630" xmlns="http://www.w3.org/2000/svg" role="img" aria-label="GLP-1 Weight Loss Is Costing You Muscle">
  <defs>
    <linearGradient id="bg" x1="0" y1="0" x2="1" y2="1">
      <stop offset="0%" stop-color="#16191B"/>
      <stop offset="100%" stop-color="#0B0F10"/>
    </linearGradient>
    <linearGradient id="accent" x1="0" y1="0" x2="1" y2="0">
      <stop offset="0%" stop-color="#FF6B5C"/>
      <stop offset="100%" stop-color="#F59E0B"/>
    </linearGradient>
  </defs>
  <rect width="1200" height="630" fill="url(#bg)"/>
  <g transform="rotate(6 1010 230)">
    <rect x="940" y="90" width="48" height="220" rx="16" fill="none" stroke="#2E3539" stroke-width="6"/>
    <rect x="952" y="78" width="24" height="28" rx="6" fill="#2E3539"/>
    <line x1="964" y1="310" x2="964" y2="360" stroke="#2E3539" stroke-width="6" stroke-linecap="round"/>
    <line x1="900" y1="180" x2="940" y2="180" stroke="#2E3539" stroke-width="4"/>
    <line x1="900" y1="220" x2="940" y2="220" stroke="#2E3539" stroke-width="4"/>
  </g>
  <polyline points="860,420 980,380 1080,460 1160,260" fill="none" stroke="url(#accent)" stroke-width="14" stroke-linecap="round" stroke-linejoin="round"/>
  <circle cx="1160" cy="260" r="16" fill="#FF6B5C"/>
  <rect x="80" y="120" width="64" height="8" rx="4" fill="url(#accent)"/>
  <text x="80" y="180" font-family="Arial, Helvetica, sans-serif" font-size="28" font-weight="600" letter-spacing="4" fill="#FF6B5C">NUTRITION</text>
  <text x="80" y="290" font-family="Arial, Helvetica, sans-serif" font-size="62" font-weight="800" fill="#FAFAF9">GLP-1 Weight Loss</text>
  <text x="80" y="368" font-family="Arial, Helvetica, sans-serif" font-size="62" font-weight="800" fill="#FAFAF9">Is Costing Muscle</text>
  <text x="80" y="430" font-family="Arial, Helvetica, sans-serif" font-size="30" font-weight="600" fill="#A8A29E">What the research says to do about it</text>
  <text x="80" y="540" font-family="Arial, Helvetica, sans-serif" font-size="32" font-weight="700" fill="#F5F5F4">MacroPlan</text>
  <text x="80" y="572" font-family="Arial, Helvetica, sans-serif" font-size="20" fill="#A8A29E">macroplan.app</text>
</svg>
